<?xml version="1.0" encoding="UTF-8"?><svg id="b" xmlns="http://www.w3.org/2000/svg" width="300" height="338.56" viewBox="0 0 300 338.56"><defs><style>.d{fill:#ed1a3b;}.e{fill:#034ea2;}.f{fill:#ffcb05;}</style></defs><g id="c"><path class="e" d="m3.35,251.14l12.21-6.73-1.82-3.77-.58,1.38-9.47,4.85-3.68-1.77,11.19-5.67c.46-.22.89-.53,1.03-1.02.16-.65-.11-1.72-.06-1.74l3.38.66,4.16,8.62-12.67,6.96-3.68-1.77Z"/><path class="e" d="m9.21,261.07l12.03-7.52-3.03-4.82,3.86.38,3.45,5.51-12.47,7.8-3.85-1.36Z"/><path class="e" d="m29.71,266.11l-1.64-2.34s-.79,4.2-3.97,6.28c-.92.64-3.86,2.61-8.55.59-1.15-.5-.53-4.27-.24-4.26l3.5.27c.1-.01-2.39,2.22-.42,4.04,1.68,1.56,4.56-1.62,5.64-4.07,2.43-5.45.12-8.15.3-8.17l3.72-.03,5.44,7.71-3.77-.03Z"/><path class="e" d="m24.34,281.72c-.28,0-.61-1.13-.65-1.82-.03-.72.22-1.55.55-1.82l11.15-9.45,3.37.25c.1-.03.15-1.83-.46-2.67-.67-1.01-2.84-.82-2.84-.82-.02-.03.25-1.44-.15-2.13-.51-.87-2.41-1.24-2.41-1.24-.12-.07,4.51-.42,5.17,1.16.28.67,0,1.86.08,1.9.03.04,1.91.2,2.65.99,1.16,1.22.49,4.45.22,4.34,0,0-.88-.45-1.44-.44-.69.03-1.28.35-1.87.86l-10.33,8.75c-.4.33-.5.81-.45,1.28.07.4.5,1.05.5,1.05l-3.11-.2Z"/><path class="e" d="m35.94,293.54c-.15-.03-.92-1.53-1.15-2.53-.17-.64-.14-1.79-.14-1.79l-3.55-.3c-.16-.02-.76-5.19,1.93-7.57,1.38-1.25,3.36-1.38,5.25-2.62,1.26-.83.33-2.48.37-2.5l3.61-.48c.22-.04.59,1.94-.18,2.69-1.61,1.56-3.67.78-5.35,2.29-3.11,2.75-2.68,8.23-2.26,7.79l8.31-8.7,4.09.34-9.05,9.48c-.18.18-.1,1.04-.06,1.68.05.63.49,1.67.62,1.55l11.71-12.26,4.06.37-12.41,12.99-5.81-.42Z"/><path class="e" d="m51.62,306.48c-.16-.01-1.1-1.43-1.44-2.39-.24-.61-.34-1.77-.34-1.77l-3.56.13c-.16-.01-1.35-5.09,1.04-7.76,1.21-1.4,3.17-1.77,4.9-3.21,1.17-.96.06-2.49.09-2.53l3.53-.89c.21-.06.81,1.85.13,2.69-1.42,1.74-3.55,1.21-5.04,2.89-2.77,3.09-1.71,8.49-1.34,8.01l7.24-9.61,4.1-.14-7.89,10.47c-.16.2.02,1.03.14,1.68.12.62.69,1.6.78,1.45l10.21-13.52,4.08-.11-10.82,14.35-5.81.27Z"/><path class="e" d="m60.92,289.2c-1.15-.68-1.71-2.49-1.71-2.49,0,0,1.9.58,2.5-.4.54-.9-.82-2.11-.82-2.11l2.19-.88s1.16,1.3.72,2.04c-.67,1.16-2.12,1.69-2.12,1.69,0,0,.6,1.6,1.49,2.05,1.25.62,2.92.13,3.46-1.06.36-.85-.94-1.62-.94-1.62l2.88-1.14s.63,1.46.28,2.31c-1.22,2.82-5.15,3.2-7.92,1.61Z"/><path class="e" d="m63.36,314.13l7.41-12.1-4.86-2.97,3.63-1.38,5.55,3.4-7.67,12.55-4.06.5Z"/><path class="e" d="m78.24,322.27s.14-2.14-.06-3.39c-.11-.84-.53-2.44-.7-2.28l-3.96,3.33c-.27.26-1.54-3.7.51-8.22,2.06-4.42,6.81-6.82,7.2-6.54,0,0,.94.53,1.24,1.1.28.58.46,1.39.27,1.49l-2.81,1.29s.05-.88-.24-1.27c-.27-.33-.89-.64-.98-.44-.46-.23-1.94,3.22-2.26,5.14-.25,1.66-.39,4.66-.06,4.39l3.23-2.63s.51,1.02.64,1.71c.12.54.33,1.56.36,1.52l6.25-12.58,3.87-.64-8.5,17.14-3.98.87Z"/><path class="e" d="m83.72,304.06l2.34-4.22,3.48-.58-2.38,4.3-3.45.51Z"/><path class="e" d="m89.64,327.16l5.22-13.19-5.29-2.1,3.34-1.96,6.06,2.39-5.44,13.66-3.89,1.19Z"/><path class="e" d="m102.83,331.64c-.35.13-5.44-2.98-4.83-6.4.44-2.35,4.02-2.88,4.02-2.88.19-.17-2.49-.53-2.37-3.19.11-1.54,3.59-4,5.31-4.47,1.17-.32,2.19,2.14,2.12,2.21l-2.6,1.61s.02-.98-.31-1.36c-.5-.59-1.67-.9-1.94-.44-.59.9.36,2.81.84,3.32,1.44,1.49,3.16.9,3.16.9.12.03-3.59.98-4.71,2.77-1.49,2.39,3.6,6.62,3.73,6.17l3.53-11.73,3.79-1.56-3.85,12.8-5.91,2.27Z"/><path class="e" d="m120.78,335.9s-.43-2.11-.94-3.26c-.34-.76-1.16-2.21-1.29-2.01l-2.93,4.26c-.19.31-2.46-3.16-1.68-8.06.8-4.8,4.76-8.38,5.22-8.2,0,0,1.05.24,1.48.72.43.47.81,1.22.65,1.37l-2.36,2s-.13-.9-.55-1.16c-.41-.26-1.07-.47-1.1-.26-.52-.1-.99,3.72-.8,5.64.2,1.66.86,4.6,1.09,4.26l2.43-3.39s.76.85,1.07,1.49c.25.48.72,1.41.74,1.37l1.79-9.15,3.63-1.92-2.82,14.42-3.62,1.89Z"/><path class="e" d="m139.85,330.64c0,.12-1.04-2.47-1.74-3.97-.5-1.13-1.6-3-1.5-2.99l3.83.35-.58,6.61Zm2.73,5.26l1.3-14.64-11.38-1.01-2.21,2.88,4.51.4c.08,0-3.96,2.12-4.62,7.26-.44,3.42,2.47,6.8,2.47,6.8l3.11-2.89s-1.54.26-2.71-3.65c-.7-2.31.56-6.31.75-5.95.05-.56,2.15,3.05,2.92,5.64.84,2.87,2.2,7.45,2.29,7.42l3.57-2.24Z"/><path class="e" d="m142.54,318.25s-.36-1.7-2.56-2.96c-.34-.17-2.02-1.09-3.53-1.2-1.6-.1-2.49.6-2.49.6-.43.07,1.28,2.07,2.78,2.17.59.02,1.77-1.05,1.77-1.05,0,0-1.55,2.14-2.99,2.35-1.52.2-3.78-1.49-3.65-1.56-.13-.05,3.13-3.85,5.94-4.23,3.3-.48,6.91,3.45,6.91,3.49l-2.18,2.39Z"/><path class="e" d="m158.28,338.35l-.34-13.58c-.03-.86-1.58-1.3-1.46-1.26.13.05-1.65,1.43-2.86,1.28-1.04-.15-2.49-1.63-2.49-1.63,0,0-1.09,1.67-.85,2.88.26,1.38,3.07,3.71,3.07,3.58.04.08.22-1.2-.27-1.76-.35-.38-1-.58-1-.58l1.7-2.21s1.92.81,1.38,2.82c-.84,2.83-3.68,2.89-3.65,4.67.13,3.05,2.72,3.19,2.67,3.3l-1.74,2.66c-.08.18-2.38-.55-3.04-2.38-.78-2.22,1.72-4.23,1.68-4.31,0-.09-2.67-1.54-2.69-3.86-.07-4.09,4.77-7.1,5.22-6.77.04-.09,1.16,1.87,2.33,1.84,1.16-.03,2.28-1.96,2.28-1.96,0,0,1.83.61,2.42,1.53.36.64.45,1.03.47,1.97l.28,11.13-3.13,2.63Z"/><path class="e" d="m177.46,336.38c-.16.24-1.28-.11-1.89-.46-.62-.36-1.18-1.03-1.22-1.45l-1.57-12.32,2.84-2.93,1.71,13.44c.07.5.41.85.84,1.06.36.17,1.14.15,1.14.15l-1.85,2.5Zm-7.47,1.12c-.13.24-1.23-.1-1.83-.45-.62-.36-1.22-1.07-1.27-1.45l-1.57-12.32,2.85-2.94,1.7,13.44c.08.51.41.87.84,1.07.37.17,1.15.15,1.15.15l-1.85,2.5Z"/><path class="e" d="m192.89,333.19l-2.4-10.29c-.13-.59-.87-1.26-1.74-1.53-.61-.22-1.79-.11-1.78-.07-.07.02-.49.96,2.08,4.16,2.31,2.83-2,9.28-2.11,9.17,0,0-4.97-1.37-5.81-4.93-.58-2.53,1.68-4.65.47-6.75-.37-.67-1.71-.71-1.71-.71l1.58-2.93s1.94-.05,2.18,2.32c.17,1.91-1.87,2.47-.68,6.26.83,2.56,4.91,3.74,4.88,3.6,0,0,1.45-1.19-1.56-4.41-2.25-2.44.16-5.8.13-5.78,0,0-.53-.15-.8-.35-.26-.2-.75-.54-.59-.83l1.65-3.18s1.03,1.97,2.75,1.57c1.85-.47,2.17-2.89,2.16-2.71.11-.11-.02,1.24-.24,1.96-.06.19-.69,1.26-.63,1.25,0,0,.92.35,1.34.7.59.45,1.19.93,1.33,1.51l2.11,9.03-2.59,2.95Z"/><path class="e" d="m188.94,315.33l-1.18-4.69,2.2-2.8,1.17,4.76-2.2,2.73Z"/><path class="e" d="m205.69,329.32s-2.54-2.7-4.05-3.74c-2.1-1.38-4.54-1.85-4.49-1.87l1.39-2.51c.07-.06,2,.52,2.4.66,1.62.64,2.79,1.83,2.79,1.83l-2.21-6.67c-.16-.45-.51-.69-.96-.82-.55-.15-1.6.26-1.6.26l1.48-3.59s1.61.03,1.95.13c.51.15,1.39.73,1.43.84l4.02,12.11-2.15,3.36Z"/><path class="e" d="m218.2,324.42c-.3.4-5.91.86-8.15-3.62-1.12-2.29.82-4.39-.36-6.48-.65-1.17-2.31-1.01-2.33-1.05l.86-3.34s2.36.25,2.96,2.5c.6,2.27-1.34,4.29.59,6.26,4.22,4.23,7.19,2.62,7.12,2.46l-6.52-15.07,1.92-3.61,7.23,16.74-3.33,5.21Z"/><path class="e" d="m227.18,304.08l-2.5,1.36s4.08,1.28,5.76,4.69c.52.98,2.13,4.13-.44,8.55-.63,1.08-4.31.02-4.25-.26l.69-3.44c0-.1,1.91,2.64,3.97.89,1.75-1.47-1.08-4.72-3.37-6.07-5.14-3.06-8.08-1.08-8.09-1.27l.41-3.7,8.3-4.49-.48,3.74Z"/><path class="e" d="m234.07,303.9c-1.26.68-3.61-.45-3.53-.65l.89-4.17s.24,3.24,2.87,1.86c1.45-.76.68-4.86.71-4.83-.03-.03,1.99,6.25-.93,7.78Zm5.59,8.35c-1.27.69-3.6-.46-3.52-.6l.87-4.21s.25,3.25,2.86,1.88c1.46-.77.7-4.84.74-4.8-.01-.1,1.96,6.21-.94,7.74Z"/><path class="e" d="m249.08,306.81c0,.27-1.14.49-1.84.46-.71-.02-1.58-.35-1.8-.67l-7.23-10.1,1.12-3.92,7.88,11c.29.43.76.58,1.23.56.4-.02,1.08-.41,1.08-.41l-.44,3.08Z"/><path class="e" d="m261.47,297.06l-9.15-11.01-2.63,2.18c-.82.69,4.14,2.62,5.85,5.13,2.34,3.54.97,7.99.86,7.92,0,0-4.83.59-7.44-2.62-1.61-2.02-.41-4.59-2.66-6.15-.69-.49-2.2.32-2.2.32l-.36-3.46s2.48-.67,3.58.84c1.12,1.63-.46,2.62,2.92,5.82,2.11,1.99,5.99,2.41,5.84,2.24,0,0,.07-2.16-3.92-4.24-3.81-2.03-4.04-8.31-3.34-8.88l4.08-3.4,9.39,11.31-.82,3.99Z"/><path class="e" d="m262.2,276.7c.17-.16-.28.75-.4,2.17-.11.97.59,2.73.38,2.64.02.15-1.74-.18-2.49-.78-.96-.74-.74-.67-.74-.67l3.24-3.37Zm12.58,3.73l-10.59-10.2-1.65,1.71s-.04-2.81-1.24-3.61c-.7-.47-2.14.23-2.14.23l.06,3.59c0,.07,1.05-1.14,1.66-.8.31.18.98,1.3.73,1.55l-3.53,3.66c-.42.44-.32,5.44,2.02,7.46,2.33,2.01,5.27,1.13,7.83,3.18.99.78,1.19,2.76,1.22,2.73l.21-.22c.3-.31-.11-4.48-2.32-6.36-1.58-1.4-3.85-1.61-3.87-1.7-.49-.24-.72-1.11-.27-1.4,1.17-.66,1.86.12,1.84.1l-.22-3.38s-.89-.27-1.23-.23c-.21.03-.54.12-.54.12l.16-.91,1.25-1.3,10.22,9.84.38-4.06Z"/><path class="e" d="m282.69,274.61c.06.27-.98.81-1.67.97-.69.17-1.55.07-1.88-.2l-11.37-9.19-.37-3.36c-.05-.09-1.82.19-2.54.93-.86.85-.28,2.94-.28,2.94-.03.05-1.47.04-2.05.56-.76.66-.77,2.59-.77,2.59-.06.12-1.25-4.35.18-5.29.59-.41,1.83-.35,1.84-.44.05-.04-.16-1.92.49-2.79.99-1.36,4.28-1.3,4.21-1.02,0,0-.27.96-.15,1.49.16.69.59,1.2,1.19,1.68l10.52,8.53c.4.32.89.33,1.34.19.39-.14.94-.68.94-.68l.38,3.09Z"/><path class="e" d="m292.73,260.51l-12.03-7.75-1.84,2.86c-.59.9,4.72,1.25,7.11,3.15,3.29,2.68,3.32,7.32,3.19,7.3,0,0-4.44,2.02-7.89-.27-2.17-1.43-1.77-4.27-4.37-5.07-.82-.27-2.01.96-2.01.96l-1.38-3.2s2.18-1.37,3.67-.26c1.56,1.22.34,2.65,4.52,4.67,2.61,1.28,6.44.52,6.26.39,0,0-.61-2.08-5.03-2.87-4.26-.79-6.33-6.7-5.85-7.47l2.87-4.45,12.36,7.95.4,4.07Z"/><path class="e" d="m300,248.13c.05.36-4.01,4.76-7.24,3.47-2.21-.88-2.03-4.51-2.03-4.51-.14-.21-1.02,2.35-3.6,1.71-1.5-.4-3.24-4.3-3.36-6.08-.08-1.22,2.54-1.73,2.6-1.65l1.06,2.86s-.96-.2-1.39.05c-.69.36-1.23,1.45-.82,1.81.77.75,2.83.18,3.42-.19,1.76-1.12,1.5-2.9,1.5-2.9.06-.12.27,3.71,1.8,5.15,2.06,1.92,7.19-2.23,6.78-2.45l-10.82-5.77-.78-4.02,11.8,6.28,1.08,6.24Z"/><path class="f" d="m137.54,1.6c-2.46-1.41-7.48-.54-8.05,2.19-1.08,5.23-7.38,3.53-9.37,5.01-1.14.85-3.69,6.43-6.53,5.88-2.85-.55-1.68,2.19-6.47,2.4-2.4.22-.89-3.12-5.52-1.1-1.68.73-4.02,5-4.53,6.61-.78,2.52,1.29,3.98.25,6.45-.47,1.14.01,5.6-.49,6.68-.46,1-2.74,2.13-3.22,3.23-.73,1.21-3.35,2.66-1.49,5.2,1.86,2.54,4.73,5.04,4.47,7.68-1.95,5.75,1.02,6.81,4.36,10.33,1.05,1.11,0,4.36,6.04,5.53,3.15.61,1.98,5.22,3,8.27.9,2.74,2.83,4.41,4.5,6.59.47.61.84,1.28.75,2.17-.17,1.79-1.94,3.06-2.6,4.66-.72,1.8-1.79,4.03-1.96,5.97-.13,1.35.03,2.84-.3,4.14-.42,1.57-1.45,2.98-2.57,4.01-.45.42-1.03.67-1.57,1.07-.96.7-1.07,1.43-1.56,2.46-1.02,2.22-1.82,3.65-.89,5.87.77,1.84,1.81,3.57,2.87,5.32,2.71,4.51,6.96,7.64,10,11.93,1.11,1.55,2.14,3.48,2.77,5.41.76,2.31,2.08,4.3,2.45,6.74.29,1.89-.08,3.39-.39,5.25-.75,4.64,1.75,7.48,3.67,11.54.89,1.89,1.43,3.85,1.87,5.86.5,2.3-.17,4.02.43,6.26.3,1.06.19,2.52.24,3.62.02.53.02,1.05.03,1.58,0,.35,0,.96-.07,1.43-.43,2.03-1.23,4.92-2.49,7-1.49,2.43-2.87,5.04-4.23,7.51-1.36,2.44-3.95,3.67-5.39,5.87-2.29,3.5-1.19,5.63-3.12,9.24-.57,1.05-1.14,3.12-1.64,4.21-.47,1.01.65,3.96.2,4.94-.5,2.22-1.8,4.16-2.03,4.72-.69,1.68-3.22,2.29-3.96,3.96-1.39,3.15-1.42,5.01-1.98,8.43-.58,3.51-1.98,6.66-2.63,10.15-.25,1.4-.04,2.38.3,3.74.91,3.51,3.9,4.49,5.59,2.52.92-1.08,2.49-.88,3.54.02,1.03.89,1.27,2.26,2.06,3.3.78,1.02,2.35,2.1,3.48,2.75,1.91,1.12,3.63,2.28,5.43,3.7,1.79,1.42,2.98,3.59,3.97,5.66.88,1.82,1.11,2.81,2.66,4.01,1.34,1.04,2.38,2.5,3.4,3.83,1.15,1.53,1.15,2.95,1.7,4.73.66,2.02,2.48,1.93,3.91,3.19,1.63,1.41,2.38,3.65,4.62,4.31,1.47.45,1.87.09,2.88-.72,2.52-2.03,3.26.2,5.59,1.44,1.5.82,3.09,1.16,4.55,2.15,2.79,1.93,6.55,1.48,8.75,4.11,1.81,2.18.59,6.63,3.07,8.49,1.66,1.26,3.96.57,5.54-.08,1.18-.47,2.6-.54,3.9-.61,1.31-.07,2.58-.02,3.87-.31,1.62-.38,1.9-.86,2.86-2.2,1.04-1.46,3.34-4.7,2.82-6.64-.52-1.89-3.32-1.9-4.61-2.86-1.58-1.17-3.27-2.14-4.7-3.48-1.26-1.15-1.98-2.48-3-3.83-1.26-1.69-1.84-3.08-4-3.73-1.91-.58-3.75-.3-5.52.28-5.16,1.68-8.14-2.52-10.96-6.29-1.09-1.45-1.51-3.4-2.69-4.78-1.19-1.41-2.52-2.49-3.21-4.32-.92-2.46-1.63-5.28-1.95-7.87-.25-2.2.03-3.59-.98-5.7-.9-1.86-2.88-2.85-3.73-4.66-.94-1.98-2.13-4.22-2.73-6.37-.6-2.13-.54-4.29-1.28-6.33-.9-2.5-3.09-2.74-5.46-2.39-1.59.24-4.24,1-5.75.18-2.16-1.18-1.64-5.57-2.18-7.59-.36-1.33-.57-2.52-.63-3.91-.2-3.76.92-7.43,2.07-10.83.83-2.44,2.41-4.43,3.38-6.81.72-1.74,1.18-3.63,1.56-5.26.68-2.87,2.08-5.5,2.81-8.46.4-1.67,1.22-2.48,1.96-4.04.78-1.68,1.09-3.78,2.04-5.28,1.53-2.39,3.08-5.06,3.27-7.92.17-2.95-.27-6,0-8.93.29-2.95,1.13-5.82,1.26-8.6.12-2.38-2.21-4.8-.33-6.96.8-.91,2.17-1.37,3.15-1.83,1.36-.64,2.68-1.2,4.21-1.3,2.93-.2,5.54.03,8.15.99,3.57,1.33,2.74,3.29,2.49,6.49-.21,2.61-.68,5.3-.68,7.85,0,2.83,1.38,3.71,3.92,3.59,2.78-.12,5.69.55,8.41-.33,1.19-.39,1.92-1.33,3.27-1.33,2.06,0,3.04,1.59,4.42,2.77,3.05,2.58,6.5,4.6,9.51,7.29,1.28,1.14,2.82,2.14,3.99,3.37,1.05,1.1,3.08,5.35,4.36,6.16,2.87,1.8.38-4.16.49-6.44.15-3.05.64-6.18-1.01-8.47-1.67-2.32-3.67-4.15-4.47-7.02-.43-1.53-.77-2.95-1.35-4.42-.56-1.41-1.49-2.97-1.28-4.56.3-2.49,1.56-6.13,3.16-8.13.59-.72,2.01-1.3,2.79-2.03,1.18-1.08,2.71-2.57,3.51-3.83,1.62-2.51,1.9-6.46,5.61-6.83-.14.09,4.58-1.6,7.29-2.16,2.43-.51,5.03-.49,7.52-.25,4.38.42,8.74-.17,13.14-.35,1.74-.08,3.34-.2,4.98.51,1.55.66,2.87,1.76,4.64,1.78,1.56,0,2.56-.38,3.57-1.42.48-.53.93-1.15,1.51-1.66.49-.42,1.21-.76,1.66-1.27,4.74-5.44.3-12.36,3.23-19.43.59-1.45.58-3.31.13-4.83-.42-1.44-1.62-1.9-2.58-2.81-.92-.86-1.78-1.71-2.7-2.55-.45-.41-.86-1.02-1.37-1.41-.92-.69-1.97-.67-2.79-1.5-.89-.9-1.74-2.4-2.44-3.48-.56-.87-1.4-1.68-2.18-2.39-.92-.86-2.22-1.74-2.74-2.98-.63-1.49-.55-3.42-.75-4.99-.46-3.45.15-6.93.42-10.34.23-2.77-2.51-4.22-4.16-5.95-2.5-2.63-3.41-6.54-7.21-7.6-3.96-1.11-3.1-8.08-8.29-7.89-5.82.23-11.71,2.02-12.92,3.19-1.17,1.11-2.19,1.77-3.63,2.6-2.6,1.5-6.65,1.47-9.42.42-2.65-1-4.86-4.17-7.98-2.75-2.81,1.29-4.39,3.49-6.77,5.49-2.56,2.15-5.15,4.62-8.15,6.15-2.61,1.32-4.88.12-4.01-3.08.31-1.15,1.35-1.78,1.69-2.9.48-1.63-.94-4.08-.53-5.76.68-2.81,2.71-4.56,2.71-7.51,0-4.89-3.6-5.77.97-14.5,0-3.35.23-7.11-3.87-7.88-1.7-.31-2.48.75-4.01.98-1.12.18-2.32-.02-3.44.13-.77.1-1.56.4-2.32.42-2.24.02-4.52-1.79-3.66-4.12.6-1.61,2.3-2.75,2.89-4.31.61-1.5,0-3.52-.92-4.7-4.57-5.82-9.06-2.07-12.12-3.82Z"/><path class="e" d="m168.17,302.75c-.96,0-1.95-.23-2.83-.89-1.66-1.25-1.95-3.35-2.21-5.21-.19-1.36-.36-2.65-1.01-3.43-1.07-1.28-2.66-1.73-4.35-2.21-1.42-.4-2.88-.81-4.21-1.73-.76-.51-1.57-.84-2.44-1.19-.66-.27-1.35-.54-2.02-.91-.73-.39-1.31-.86-1.82-1.27-1.2-.98-1.53-1.24-2.75-.26-1.2.96-1.92,1.44-3.73.88-1.71-.51-2.69-1.78-3.56-2.9-.45-.59-.88-1.15-1.4-1.6-.43-.38-.92-.62-1.44-.87-1.03-.5-2.2-1.07-2.74-2.73-.18-.56-.3-1.08-.41-1.58-.25-1.1-.46-1.96-1.15-2.88l-.37-.48c-.87-1.15-1.78-2.34-2.86-3.18-1.44-1.12-1.91-2.14-2.51-3.44-.13-.28-.26-.58-.42-.9-.95-2-2.06-4.03-3.71-5.34-1.72-1.35-3.41-2.5-5.33-3.63-.6-.34-2.68-1.6-3.74-2.98-.38-.51-.64-1.04-.89-1.55-.31-.65-.59-1.21-1.05-1.62-.37-.31-.83-.51-1.25-.53-.4-.01-.73.12-.97.41-.93,1.08-2.26,1.54-3.57,1.23-1.7-.4-3.06-1.94-3.62-4.12-.37-1.49-.6-2.57-.32-4.13.32-1.74.82-3.39,1.3-4.98.53-1.75,1.03-3.39,1.32-5.16.11-.7.21-1.33.29-1.92.34-2.3.6-4.11,1.75-6.73.47-1.07,1.44-1.75,2.29-2.35.73-.51,1.42-1,1.66-1.6.07-.16.2-.41.38-.74.47-.86,1.25-2.29,1.6-3.83l.06-.19c.1-.27-.07-1.29-.17-1.9-.19-1.17-.38-2.27-.03-3.04.2-.43.41-1.05.64-1.71.33-.93.66-1.9,1.03-2.56.83-1.55,1.05-2.79,1.28-4.11.27-1.56.56-3.18,1.88-5.2.74-1.13,1.72-2,2.67-2.84,1.04-.93,2.03-1.8,2.69-2.97l.82-1.5c1.09-2.01,2.23-4.08,3.43-6.04,1.27-2.09,2.03-5.1,2.37-6.7.05-.31.05-.81.05-1.14v-.7c-.02-.31-.02-.62-.03-.94-.01-.31-.02-.66-.02-1.02,0-.82,0-1.75-.19-2.39-.35-1.31-.32-2.43-.28-3.51.03-.93.06-1.81-.16-2.8-.38-1.71-.89-3.72-1.81-5.66-.43-.9-.89-1.75-1.33-2.57-1.57-2.89-3.05-5.61-2.42-9.51l.13-.78c.26-1.51.47-2.71.25-4.19-.21-1.38-.77-2.63-1.35-3.94-.37-.84-.76-1.71-1.07-2.64-.56-1.74-1.5-3.57-2.64-5.16-1.32-1.86-2.93-3.55-4.48-5.18-1.97-2.08-4.01-4.23-5.56-6.81-.99-1.63-2.11-3.49-2.93-5.44-1.02-2.45-.22-4.18.71-6.19l.2-.42c.11-.22.19-.43.27-.62.31-.74.63-1.5,1.58-2.2.25-.18.5-.33.74-.48.3-.18.55-.33.75-.51,1.16-1.07,1.98-2.34,2.31-3.57.18-.7.19-1.5.2-2.36,0-.56.02-1.11.07-1.64.16-1.72.93-3.57,1.61-5.21.15-.35.29-.69.42-1.02.31-.77.81-1.42,1.29-2.06.6-.8,1.17-1.55,1.25-2.35.05-.5-.11-.92-.56-1.52-.43-.56-.88-1.09-1.32-1.6-1.28-1.51-2.61-3.06-3.33-5.26-.37-1.12-.47-2.36-.57-3.57-.21-2.59-.45-3.83-1.72-4.08-5.01-.97-5.75-3.45-6.19-4.94-.11-.36-.22-.74-.34-.87-.6-.63-1.18-1.18-1.75-1.7-2.55-2.39-4.58-4.28-2.86-9.45.09-1.58-1.37-3.34-2.78-5.04-.52-.62-1.05-1.26-1.52-1.91-1.88-2.56-.12-4.46.82-5.48.24-.26.47-.51.6-.71.36-.75,1.15-1.38,1.92-1.99.48-.38,1.14-.9,1.27-1.19.17-.37.17-2.02.17-3.01,0-1.81.02-2.96.3-3.65.41-.98.19-1.74-.1-2.7-.3-1.03-.64-2.19-.18-3.67.53-1.68,2.95-6.28,5.04-7.18,2.91-1.27,4.04-.76,5,.55.31.42.38.51.79.47,2.26-.1,2.91-.74,3.54-1.37.62-.61,1.39-1.37,3.19-1.02,1.42.27,3.2-2.28,4.26-3.81.63-.91,1.09-1.56,1.54-1.9.85-.63,2.12-.79,3.46-.97,3-.38,5-.83,5.55-3.49.26-1.22,1.19-2.25,2.62-2.89,2.15-.97,5.01-.93,6.8.09.86.49,1.98.42,3.28.33,2.62-.17,5.88-.39,9.11,3.72,1.09,1.39,1.79,3.77,1.05,5.61-.34.9-.97,1.64-1.57,2.36-.55.65-1.06,1.26-1.31,1.93-.22.6-.15,1.16.2,1.66.51.73,1.54,1.21,2.56,1.21h.02c.34,0,.74-.1,1.17-.2.35-.08.69-.16,1.03-.21.61-.08,1.22-.07,1.8-.07.58,0,1.12.02,1.62-.06.48-.07.89-.26,1.32-.46.79-.36,1.68-.76,3-.52,4.66.87,4.64,4.98,4.63,8.28v.73s-.11.2-.11.2c-2.96,5.66-2.33,7.68-1.6,10.02.35,1.12.74,2.38.74,4.05,0,1.95-.77,3.4-1.51,4.81-.5.95-.98,1.86-1.23,2.92-.15.61.07,1.53.28,2.42.27,1.14.55,2.32.24,3.38-.22.72-.63,1.25-.99,1.71-.31.41-.59.76-.7,1.17-.28,1.02-.18,1.81.26,2.17.49.4,1.44.33,2.44-.16,2.34-1.19,4.45-3.01,6.5-4.78.49-.42.98-.85,1.47-1.26.74-.62,1.41-1.27,2.05-1.9,1.48-1.43,2.87-2.78,4.93-3.73,2.59-1.18,4.62.19,6.41,1.41.78.53,1.52,1.03,2.28,1.32,2.34.89,6.16,1.07,8.63-.35,1.45-.84,2.38-1.45,3.45-2.46,1.45-1.4,7.67-3.21,13.52-3.44,3.49-.13,4.74,2.49,5.77,4.58.77,1.59,1.44,2.96,2.81,3.34,2.85.79,4.23,2.95,5.57,5.04.63.98,1.27,1.99,2.06,2.81.37.38.8.76,1.26,1.16,1.5,1.31,3.37,2.93,3.15,5.5-.06.81-.15,1.62-.23,2.44-.26,2.54-.53,5.16-.19,7.69.06.48.1.99.14,1.51.08,1.15.17,2.34.55,3.25.32.76,1.09,1.42,1.83,2.05.24.21.47.41.69.61.85.78,1.73,1.64,2.33,2.57.15.23.3.47.46.72.57.92,1.23,1.96,1.86,2.6.31.32.69.46,1.18.65.47.18.99.38,1.51.77.38.29.69.64.97.96.16.18.31.36.47.51.55.5,1.09,1.02,1.63,1.54.35.34.71.68,1.07,1.02.25.24.52.44.79.64.78.59,1.67,1.26,2.05,2.58.54,1.82.48,3.86-.16,5.44-1.23,2.97-1.07,5.98-.92,8.88.2,3.7.4,7.52-2.47,10.81-.35.4-.8.7-1.19.96-.2.13-.4.26-.57.41-.31.28-.6.62-.91.99-.17.2-.34.4-.51.59-1.19,1.23-2.46,1.74-4.26,1.72-1.47-.02-2.61-.63-3.72-1.22-.42-.22-.84-.45-1.28-.64-1.37-.6-2.75-.53-4.33-.45h-.24c-1.27.06-2.53.15-3.8.23-3.09.21-6.29.42-9.48.12-2.81-.28-5.18-.2-7.24.23-1.93.4-4.95,1.4-6.39,1.88-.39.13-.72.24-.99.27v.02c-2.11.21-2.84,1.92-3.69,3.91-.36.85-.74,1.73-1.24,2.5-.88,1.38-2.51,2.95-3.66,4.01-.42.39-.95.72-1.46,1.03-.5.31-1.01.62-1.23.9-1.49,1.88-2.68,5.37-2.95,7.66-.13,1.01.35,2.12.82,3.18.14.32.28.63.4.93.46,1.18.76,2.28,1.09,3.46.09.35.19.7.29,1.05.55,1.94,1.72,3.4,2.96,4.95.46.58.93,1.16,1.38,1.78,1.62,2.25,1.44,5.09,1.26,7.83-.03.41-.05.82-.07,1.23-.03.63.2,1.74.43,2.81.48,2.26.83,3.89-.2,4.61-.55.39-1.28.31-2.14-.23-.87-.55-1.75-1.93-2.99-3.97-.58-.96-1.18-1.95-1.55-2.33-.66-.69-1.45-1.31-2.28-1.96-.57-.45-1.13-.89-1.66-1.36-1.59-1.42-3.34-2.67-5.03-3.89-1.49-1.07-3.03-2.17-4.46-3.39-.34-.29-.66-.6-.97-.91-.92-.91-1.65-1.63-2.85-1.64h0c-.57,0-1.01.26-1.56.59-.4.24-.86.51-1.42.7-1.97.64-3.97.54-5.9.44-.96-.05-1.86-.1-2.75-.06-1.68.08-2.88-.27-3.7-1.04-.8-.76-1.19-1.9-1.19-3.47,0-1.7.2-3.45.4-5.14.11-.93.21-1.87.29-2.79.04-.46.08-.9.13-1.32.27-2.43.37-3.34-2.02-4.23-2.31-.86-4.7-1.14-7.77-.94-1.38.09-2.58.6-3.89,1.22-.2.09-.42.19-.65.29-.79.35-1.69.74-2.2,1.32-.8.91-.54,1.84-.03,3.4.31.95.64,1.93.59,2.99-.07,1.59-.37,3.21-.67,4.79-.23,1.26-.47,2.57-.6,3.85-.14,1.51-.08,3.05-.02,4.67.05,1.38.11,2.81.02,4.22-.2,3.12-1.87,5.96-3.41,8.37-.49.76-.8,1.75-1.12,2.8-.25.79-.51,1.62-.86,2.38-.29.62-.59,1.13-.86,1.58-.44.73-.81,1.37-1.04,2.29-.37,1.52-.92,2.95-1.44,4.33-.53,1.4-1.04,2.73-1.37,4.12-.41,1.76-.87,3.63-1.6,5.4-.46,1.13-1.05,2.17-1.62,3.18-.67,1.19-1.31,2.32-1.74,3.57-1.13,3.32-2.22,6.87-2.03,10.48.06,1.25.23,2.36.6,3.72.18.69.26,1.55.33,2.47.14,1.77.32,3.96,1.4,4.55.94.51,2.79.16,4.14-.1.37-.07.72-.14,1.03-.18,1.27-.18,5.13-.74,6.47,3,.44,1.21.62,2.45.79,3.65.13.95.26,1.85.51,2.74.47,1.67,1.31,3.41,2.13,5.09.19.39.37.77.55,1.14.36.76.99,1.39,1.66,2.05.76.75,1.55,1.53,2.07,2.61.81,1.69.88,2.99.95,4.37.03.5.05,1.04.12,1.63.31,2.49.99,5.21,1.9,7.65.45,1.21,1.23,2.05,2.12,3.02.31.34.62.67.93,1.03.71.83,1.17,1.8,1.6,2.75.35.76.68,1.47,1.13,2.07l.2.27c2.74,3.67,5.32,7.13,9.73,5.7,2.3-.76,4.23-.85,6.08-.29,2.07.63,2.94,1.88,3.86,3.2.19.28.39.57.61.86.31.41.59.82.87,1.22.62.9,1.2,1.75,2.01,2.48.91.85,1.92,1.54,3,2.28.55.38,1.1.75,1.64,1.15.34.26.92.45,1.53.66,1.32.45,2.96,1.01,3.43,2.7.63,2.37-1.79,5.78-2.96,7.42l-.12.16c-.9,1.26-1.39,1.95-3.29,2.4-1.05.24-2.07.27-3.06.3-.32,0-.65.02-.97.04h-.12c-1.22.08-2.49.15-3.49.55-.63.26-2.06.85-3.61.85Zm-22.38-19.55c1.09,0,1.93.68,2.66,1.27.47.38.95.77,1.53,1.08.59.32,1.19.56,1.83.82.92.37,1.87.75,2.8,1.38,1.08.75,2.34,1.1,3.67,1.48,1.88.53,3.83,1.08,5.27,2.8.99,1.19,1.21,2.81,1.43,4.37.23,1.64.44,3.19,1.49,3.98.98.75,2.49.68,4.63-.2,1.29-.51,2.77-.6,4.08-.68h.12c.35-.03.68-.03,1.02-.05.94-.03,1.83-.05,2.69-.25,1.21-.29,1.36-.5,2.2-1.67l.12-.16c.76-1.07,3.09-4.34,2.68-5.86-.19-.69-1.01-1.01-2.24-1.43-.72-.24-1.46-.5-2.03-.93-.52-.38-1.05-.74-1.58-1.1-1.08-.74-2.2-1.5-3.21-2.44-.96-.87-1.63-1.85-2.28-2.79-.26-.38-.53-.77-.83-1.16-.24-.32-.45-.62-.65-.92-.85-1.23-1.42-2.04-2.87-2.48-1.46-.44-3.04-.35-4.97.28-5.67,1.84-8.92-2.51-11.79-6.35l-.2-.27c-.56-.75-.95-1.59-1.33-2.4-.4-.86-.78-1.68-1.33-2.32-.29-.35-.59-.66-.88-.98-.94-1.02-1.92-2.07-2.5-3.62-.96-2.57-1.67-5.44-2-8.08-.07-.65-.1-1.22-.13-1.76-.07-1.29-.12-2.31-.77-3.65-.38-.79-1.02-1.42-1.7-2.1-.76-.75-1.54-1.52-2.03-2.58-.17-.36-.35-.74-.54-1.12-.81-1.67-1.73-3.57-2.24-5.39-.28-1.01-.43-2.02-.56-2.99-.16-1.15-.32-2.25-.69-3.28-.59-1.65-1.88-2.17-4.46-1.79-.28.04-.61.11-.96.17-1.72.33-3.85.73-5.37-.1-1.95-1.07-2.18-3.82-2.36-6.02-.07-.83-.13-1.61-.27-2.14-.4-1.49-.6-2.72-.66-4.11-.21-3.94.93-7.68,2.12-11.17.48-1.41,1.19-2.67,1.88-3.89.57-1,1.1-1.95,1.52-2.98.68-1.64,1.12-3.43,1.51-5.12.36-1.51.91-2.96,1.44-4.35.51-1.33,1.03-2.7,1.37-4.11.29-1.19.77-2.01,1.24-2.8.26-.43.52-.88.77-1.41.3-.65.53-1.38.77-2.15.35-1.11.71-2.27,1.33-3.24,1.42-2.22,2.95-4.81,3.12-7.48.08-1.31.02-2.7-.03-4.04-.06-1.61-.13-3.28.03-4.92.13-1.37.38-2.71.62-4.02.29-1.58.57-3.08.64-4.54.04-.72-.22-1.49-.49-2.32-.51-1.54-1.14-3.45.39-5.2.78-.88,1.93-1.39,2.85-1.79.21-.09.42-.18.6-.27,1.43-.67,2.85-1.28,4.55-1.39,3.33-.22,5.96.1,8.53,1.05,3.74,1.39,3.48,3.71,3.21,6.17-.04.4-.09.82-.13,1.26-.08.95-.18,1.9-.29,2.85-.19,1.64-.38,3.34-.38,4.93,0,1.04.2,1.74.62,2.13.43.41,1.19.59,2.33.53.98-.04,1.97,0,2.93.06,1.85.1,3.59.19,5.23-.35.36-.12.69-.32,1.05-.53.67-.4,1.42-.85,2.5-.85h.01c1.96,0,3.13,1.16,4.15,2.17.28.28.56.56.87.82,1.38,1.17,2.89,2.25,4.34,3.29,1.73,1.24,3.53,2.53,5.18,4.01.49.44,1.03.86,1.57,1.28.85.66,1.72,1.35,2.48,2.14.5.53,1.1,1.51,1.79,2.65.71,1.17,1.78,2.93,2.35,3.34-.05-.65-.27-1.7-.42-2.4-.26-1.24-.51-2.41-.47-3.28.02-.42.05-.84.07-1.26.16-2.53.32-4.91-.92-6.63-.43-.59-.87-1.15-1.32-1.7-1.3-1.62-2.65-3.3-3.3-5.6-.1-.36-.2-.72-.3-1.07-.31-1.12-.6-2.18-1.02-3.27-.11-.28-.24-.57-.37-.86-.55-1.24-1.16-2.64-.97-4.16.31-2.5,1.58-6.37,3.35-8.59.43-.52,1.08-.92,1.71-1.31.44-.27.89-.55,1.17-.81.62-.57,2.5-2.3,3.36-3.65.42-.65.75-1.42,1.09-2.23.93-2.19,1.99-4.67,5.15-5.02.12-.04.35-.11.65-.21,1.48-.49,4.56-1.51,6.6-1.93,2.25-.47,4.8-.55,7.79-.26,3.04.29,6.16.08,9.17-.12,1.28-.09,2.56-.17,3.84-.22h.23c1.67-.09,3.39-.18,5.15.59.5.21.97.46,1.42.7.99.53,1.85.99,2.86,1,1.29,0,2.08-.29,2.9-1.14.14-.15.29-.33.45-.52.34-.4.69-.82,1.12-1.2.23-.2.49-.37.75-.55.32-.22.63-.42.82-.63,2.38-2.72,2.21-5.86,2.02-9.49-.16-3.11-.34-6.33,1.05-9.68.48-1.18.52-2.8.09-4.21-.21-.74-.73-1.13-1.39-1.63-.32-.24-.64-.49-.94-.77-.37-.34-.73-.69-1.08-1.03-.53-.51-1.05-1.01-1.6-1.51-.21-.2-.41-.42-.62-.66-.24-.27-.46-.53-.69-.7-.31-.23-.66-.36-1.06-.52-.58-.22-1.24-.47-1.84-1.08-.78-.79-1.49-1.92-2.11-2.92-.15-.25-.3-.48-.44-.7-.49-.75-1.26-1.51-2.03-2.21-.2-.19-.42-.37-.64-.56-.86-.74-1.84-1.58-2.33-2.74-.5-1.19-.6-2.6-.69-3.83-.03-.48-.07-.96-.12-1.4-.36-2.74-.08-5.48.18-8.12.08-.8.16-1.61.23-2.4.14-1.64-1.16-2.77-2.53-3.96-.47-.41-.96-.83-1.38-1.28-.91-.96-1.6-2.04-2.28-3.09-1.26-1.96-2.34-3.65-4.51-4.25-2.17-.61-3.13-2.58-3.97-4.32-1.09-2.25-1.86-3.64-4.03-3.54-5.91.24-11.41,2.06-12.31,2.93-1.2,1.15-2.27,1.84-3.81,2.73-2.99,1.72-7.4,1.55-10.21.48-.96-.36-1.82-.95-2.66-1.51-1.84-1.24-3.04-1.97-4.6-1.26-1.77.81-3.05,2.05-4.41,3.37-.67.65-1.37,1.33-2.15,1.99-.48.4-.97.82-1.45,1.24-2.13,1.84-4.34,3.74-6.87,5.03-1.69.86-3.35.84-4.44-.05-1.04-.84-1.36-2.34-.88-4.09.21-.77.64-1.33,1.02-1.82.3-.39.56-.72.67-1.11.17-.59-.05-1.52-.27-2.43-.26-1.1-.53-2.24-.27-3.29.31-1.28.86-2.33,1.39-3.34.69-1.32,1.29-2.46,1.29-3.95,0-1.39-.32-2.42-.66-3.51-.77-2.48-1.56-5.04,1.62-11.23v-.29c.01-3.65-.19-5.91-3.12-6.46-.74-.14-1.23.08-1.9.39-.5.23-1.07.49-1.8.6-.65.1-1.3.09-1.93.09-.54,0-1.05-.02-1.52.05-.29.04-.57.11-.86.18-.5.12-1.02.24-1.56.25h-.04c-1.64,0-3.24-.78-4.09-2-.7-1-.85-2.2-.42-3.37.36-.97,1.01-1.73,1.63-2.48.53-.63,1.03-1.22,1.26-1.84.47-1.16-.03-2.84-.78-3.8-2.62-3.34-5.11-3.17-7.53-3.01-1.46.1-2.98.2-4.32-.57-1.27-.73-3.52-.73-5.12,0-.51.23-1.39.74-1.57,1.58-.86,4.15-4.48,4.61-7.13,4.95-1.05.13-2.13.27-2.59.61-.21.16-.72.89-1.13,1.48-1.49,2.14-3.53,5.07-6.13,4.57-.84-.16-1,0-1.54.52-.75.74-1.79,1.76-4.71,1.89-1.42.13-2.04-.72-2.41-1.22-.37-.51-.64-.88-2.77.05-1.19.52-3.47,4.3-4.01,6.04-.29.94-.07,1.71.19,2.59.32,1.1.69,2.35.03,3.94-.16.39-.16,1.92-.16,2.93,0,1.9-.02,3.1-.35,3.79-.31.68-1.04,1.25-1.8,1.86-.56.44-1.25.99-1.41,1.34l-.06.11c-.22.36-.53.7-.85,1.05-1.06,1.15-1.62,1.86-.69,3.13.44.6.95,1.22,1.45,1.82,1.69,2.03,3.43,4.12,3.19,6.51l-.04.21c-1.4,4.12-.08,5.36,2.33,7.61.56.52,1.19,1.11,1.82,1.78.43.45.61,1.04.78,1.61.41,1.36.86,2.89,4.77,3.65,2.8.54,3.02,3.31,3.22,5.75.09,1.1.18,2.23.48,3.14.61,1.85,1.76,3.21,2.98,4.64.46.54.93,1.09,1.38,1.68.5.65,1.07,1.57.94,2.83-.13,1.32-.92,2.36-1.61,3.28-.43.56-.83,1.1-1.05,1.63-.13.33-.28.68-.42,1.04-.63,1.51-1.34,3.23-1.47,4.67-.05.49-.06.99-.06,1.5-.01.92-.03,1.87-.26,2.79-.42,1.58-1.43,3.16-2.84,4.46-.33.31-.7.53-1.05.74-.2.12-.4.24-.6.39-.54.39-.69.76-.96,1.42-.09.22-.19.44-.3.69l-.2.42c-.9,1.93-1.39,3-.68,4.69.77,1.82,1.85,3.62,2.8,5.2,1.45,2.41,3.33,4.39,5.32,6.49,1.59,1.68,3.24,3.41,4.64,5.38,1.25,1.74,2.27,3.75,2.89,5.66.27.84.63,1.63,1,2.46.61,1.37,1.24,2.79,1.49,4.42.27,1.78.01,3.24-.26,4.79l-.13.76c-.53,3.27.74,5.61,2.22,8.33.46.84.93,1.72,1.38,2.67.99,2.11,1.54,4.24,1.94,6.06.26,1.22.23,2.26.2,3.26-.03.99-.06,1.93.22,2.96.25.87.25,1.93.26,2.87,0,.33,0,.66.02.95.01.33.02.66.02.98v.73c.01.39.01.99-.07,1.49-.45,2.14-1.26,5.11-2.61,7.32-1.18,1.92-2.3,3.97-3.38,5.96l-.83,1.51c-.81,1.45-1.96,2.47-3.08,3.46-.9.8-1.75,1.55-2.35,2.47-1.11,1.7-1.34,3-1.6,4.5-.23,1.33-.5,2.84-1.47,4.67-.3.54-.61,1.43-.91,2.3-.24.7-.47,1.36-.71,1.87-.11.28.06,1.33.17,1.96.19,1.14.36,2.14.07,2.88-.41,1.77-1.26,3.31-1.77,4.24-.14.25-.24.44-.29.56-.45,1.1-1.44,1.79-2.31,2.4-.72.51-1.4.99-1.66,1.58-1.05,2.39-1.29,4.01-1.62,6.25-.09.6-.18,1.24-.3,1.95-.31,1.89-.85,3.67-1.38,5.4-.47,1.55-.96,3.15-1.25,4.77-.22,1.22-.03,2.07.29,3.35.38,1.48,1.24,2.54,2.24,2.78.65.15,1.26-.07,1.75-.63.61-.72,1.49-1.09,2.46-1.05.84.04,1.69.38,2.38.97.76.66,1.16,1.48,1.51,2.21.22.45.42.88.69,1.24.67.88,2.15,1.9,3.2,2.5,2,1.18,3.76,2.37,5.55,3.77,1.96,1.55,3.24,3.9,4.23,5.99.16.33.3.64.44.93.56,1.23.87,1.9,1.96,2.74,1.27.98,2.25,2.27,3.2,3.52l.36.48c.94,1.24,1.21,2.43,1.48,3.58.11.46.22.93.37,1.43.28.86.81,1.15,1.79,1.63.58.28,1.23.6,1.85,1.14.65.57,1.16,1.23,1.65,1.86.79,1.03,1.48,1.92,2.62,2.26.97.29,1.07.22,1.97-.49.97-.78,1.79-1.06,2.49-1.06Z"/><path class="e" d="m150.89,105.6v-15.26h-6.67l1.28,1.22v11.31l-4.12,2.73v-13.34c0-.55-.11-1.1-.61-1.48-.68-.46-2.07-.7-2.07-.73l2.68-2.96h13.63v15.79l-4.12,2.73Z"/><path class="e" d="m179.63,105.6c-.17.1-2.22-.51-3.32-1.12-.73-.36-1.73-1.3-1.73-1.3l-3.64,2.42c-.15.1-5.3-3.49-4.91-7.33.16-2,1.89-3.57,2.54-5.93.45-1.58-1.89-2.18-1.89-2.23l2.94-3.07c.16-.19,2.27,1.07,2.22,2.23-.12,2.41-2.71,3.34-2.93,5.75-.45,4.45,4.89,8.39,4.89,7.75v-12.95l4.11-2.78v14.11c0,.28.82.87,1.44,1.35.61.45,1.93.92,1.93.73v-18.23l4.12-2.74v19.35l-5.77,3.99Z"/><path class="e" d="m206.62,105.55c-.06,0-1.06-2.14-2.01-3.25-.6-.74-2-2.09-2.11-1.85l-2.67,5.1c-.17.37-3.91-2.83-4.12-8.17-.16-5.24,3.95-9.83,4.56-9.74,0,0,1.39.05,2.06.46.68.42,1.34,1.11,1.17,1.3l-2.51,2.6s-.39-.93-.99-1.12c-.56-.18-1.46-.28-1.46-.04-.66,0-.32,4.13.4,6.12.66,1.72,2.22,4.69,2.45,4.27l2.21-4.08s1.17.73,1.74,1.34c.43.46,1.28,1.35,1.28,1.3v-10.02l4.11-2.78v15.81l-4.11,2.74Z"/><polygon class="d" points="148.34 110.54 161.25 110.66 156.1 121.59 188.35 121.59 132.93 228.82 133.41 227.29 170.82 131.55 139.25 131.55 148.34 110.54"/><polygon class="d" points="161.88 80.56 175.8 80.47 201.22 27.56 185.29 27.43 161.88 80.56"/></g></svg>